<svg xmlns="http://www.w3.org/2000/svg"  viewBox="0 0 48 48" width="48px" height="48px"><linearGradient id="SVGID_1_" x1="35.134" x2="11.394" y1="15.602" y2="39.342" gradientUnits="userSpaceOnUse"><stop offset="0" stop-color="#60fea4"/><stop offset=".033" stop-color="#6afeaa"/><stop offset=".197" stop-color="#97fec4"/><stop offset=".362" stop-color="#bdffd9"/><stop offset=".525" stop-color="#daffea"/><stop offset=".687" stop-color="#eefff5"/><stop offset=".846" stop-color="#fbfffd"/><stop offset="1" stop-color="#fff"/></linearGradient><path fill="url(#SVGID_1_)" d="M45.507,29.857c0-5.756-5.379-10.389-12.126-10.553l0.009-0.01C32.761,12.535,26.065,7.28,17.966,7.28	c-8.51,0-15.473,5.803-15.473,13.056c0,4.158,2.225,7.736,5.803,10.155l-1.152,4.131c-0.162,0.581,0.482,1.053,0.987,0.723	l4.324-2.823c1.644,0.58,3.578,0.87,5.512,0.87c1.064,0,2.103-0.09,3.109-0.264l0.043-0.049c1.603,4.272,6.311,7.345,11.9,7.345	c1.729,0,3.363-0.288,4.803-0.769l3.356,1.909c0.506,0.288,1.108-0.18,0.953-0.742l-0.851-3.089	C43.873,35.813,45.507,33.027,45.507,29.857z"/><path fill="none" stroke="#10e36c" stroke-linecap="round" stroke-linejoin="round" stroke-width="3" d="M30.301,12.701C27.48,9.56,23.009,7.543,18,7.543c-8.481,0-15.42,5.783-15.42,13.011	c0,4.144,2.217,7.71,5.783,10.12L6.75,36.457l5.757-3.759c1.638,0.578,3.566,0.867,5.493,0.867c1.06,0,2.096-0.09,3.098-0.263"/><path fill="none" stroke="#10e36c" stroke-linecap="round" stroke-linejoin="round" stroke-width="3" d="M30.251,40.319c0.884,0.167,1.804,0.255,2.749,0.255c1.723,0,3.351-0.287,4.787-0.766l4.713,2.681	l-1.266-4.596c2.585-1.914,4.213-4.691,4.213-7.85c0-1.736-0.491-3.37-1.361-4.81"/><path fill="none" stroke="#10e36c" stroke-linecap="round" stroke-linejoin="round" stroke-width="3" d="M39.001,20.805c-1.778-0.825-3.822-1.294-6.001-1.294c-6.894,0-12.447,4.691-12.447,10.532	c0,2.638,1.133,5.041,3.01,6.883"/><path fill="#10e36c" d="M14,16c0,1.1-0.9,2-2,2s-2-0.9-2-2s0.9-2,2-2S14,14.9,14,16z M24,14c-1.1,0-2,0.9-2,2s0.9,2,2,2s2-0.9,2-2	S25.1,14,24,14z"/><circle cx="28.5" cy="27.5" r="1.5" fill="#10e36c"/><circle cx="37.5" cy="27.5" r="1.5" fill="#10e36c"/></svg>